<svg xmlns="http://www.w3.org/2000/svg" viewBox="0 0 430.34 43.88"><defs><style>.cls-1{fill:#fff;}</style></defs><g id="Layer_2" data-name="Layer 2"><g id="Layer_1-2" data-name="Layer 1"><path class="cls-1" d="M86.07.57l1.14.86.28.28a7.46,7.46,0,0,1,3.14,4.56,15.64,15.64,0,0,1-.57,7.13c-1.14,3.42-2.28,7.12-3.42,10.54l-.57,1.43c-.86,2.28-1.43,4.56-2.28,6.83l-.57,2c-.86-2.28-1.43-4.28-2.28-6.55L79.8,24.51c-2-5.41-3.71-10.54-5.7-16a5.28,5.28,0,0,1,1.71-6.27L77.52.86H60.42l.57.85.85.86a14.86,14.86,0,0,1,1.71,2.28c1.71,2.27,2.57,5.13,3.71,7.69v.57C65,19.38,62.42,25.94,60.13,32.2c-.28.86-.57,1.43-.85,2.28h0l-1.43-4.27c-1.14-4-2.56-7.7-3.7-11.69C52.72,14.25,51.87,10.83,51,7.41a4.08,4.08,0,0,1,1.71-4.85l2-1.71H38.19l.57.86c.28.28.57.85.85,1.14.57.85,1.14,1.71,1.72,2.56,1.42,3.14,2.56,6.27,3.7,9.12,3.13,8.84,9.41,27.93,9.41,27.93v.29h.28a8,8,0,0,0,2.56.28,6.46,6.46,0,0,0,2.57-.28h.28v-.29s6.27-17.1,9.13-25.08V17.1c3.13,8.55,9.11,25.08,9.11,25.08v.28h.29a7.73,7.73,0,0,0,2.56.29,8.63,8.63,0,0,0,2.85-.29h.29v-.28s3.42-10.26,5.13-14.82q3.42-9.84,6.84-18A15.81,15.81,0,0,1,101.46,2l.28-.28.57-.85Z"/><path class="cls-1" d="M16.82,2a6.24,6.24,0,0,1,3.7,5.12v.29a9.09,9.09,0,0,1,.86,4c0,5.7,0,12,.28,17.1h0v2C21.66,37.33,19.1,41,14.54,41c-4,0-6.84-2.84-6.84-7.12A6.38,6.38,0,0,1,8,31.63v-.28L0,33.63v.28c.57,5.7,6.27,10,14.25,10a17,17,0,0,0,10.83-3.42,12.9,12.9,0,0,0,4.56-10.25h0V16.81c0-3.13.28-6.27.28-9.12.29-2.57,1.14-4.56,3.14-5.7a1,1,0,0,0,.57-.28L34.77.85h-20Z"/><path class="cls-1" d="M139.08,42.75H136.8l-11.69-28.5a98.34,98.34,0,0,1-3.7-9.69h0c.28,2,.28,7.13.28,10.83V42.75h-2.28V.57h2.85l13.4,32.49c1.14,2.85,2,4.56,2.28,6.27h0c.57-1.71,1.14-3.13,2.27-6.27L152.75.57h3.14V42.75h-2.28V16c0-3.7,0-10.26.28-12h0c-.57,1.71-1.71,5.7-3.42,9.69Z"/><path class="cls-1" d="M169.86,42.75h-2.57L183,.86h2.85l16,41.89h-2.28l-4.84-13.11h-20Zm17.38-32.49c-.86-2.28-2-5.7-2.57-7.69-.85,2-2,5.41-2.85,7.41l-6.55,17.09h18.24Z"/><path class="cls-1" d="M244.52,42.75h-3.13L228,23.37H215.74V42.75h-2.28V.57h14.25a30.77,30.77,0,0,1,9.12,1.14c4,1.71,6.55,5.13,6.55,10.26,0,4-1.42,6.84-4,8.55-2.27,1.71-5.13,2.28-8.55,2.57Zm-17.1-21.38c4.56,0,7.7-.57,10.26-2.27a7.91,7.91,0,0,0,3.14-6.84,7.82,7.82,0,0,0-4-7.13c-2.28-1.42-4.85-2-9.41-2H215.74V21.38h11.68Z"/><path class="cls-1" d="M288.7,42.75h-3.14L271.88,23.66H259.63V42.75h-2.28V.57H271.6a30.77,30.77,0,0,1,9.12,1.14c4,1.71,6.55,5.13,6.55,10.26,0,4-1.42,6.84-4,8.55-2.28,1.71-5.13,2.28-8.55,2.57ZM271.6,21.37c4.56,0,7.69-.57,10.26-2.27A7.93,7.93,0,0,0,285,12.26a7.82,7.82,0,0,0-4-7.13c-2.28-1.42-4.84-2-9.4-2H259.91V21.38H271.6Z"/><path class="cls-1" d="M304.08,42.75h-2.27V.57h2.27Z"/><path class="cls-1" d="M335.15,0c11.11,0,17.67,8.55,17.67,21.66s-6.56,21.66-17.67,21.66-17.67-8.55-17.67-21.66S324.32,0,335.15,0Zm0,41.32c9.12,0,15.39-7.69,15.39-19.66C350.54,10,344.55,2,335.15,2s-15.39,7.69-15.39,19.66C320,33.63,326,41.32,335.15,41.32Z"/><path class="cls-1" d="M358.8.57h31.64V2.85H375.9v39.9h-2.56V2.85H358.8V.57Z"/><path class="cls-1" d="M398.7.57h31.64V2.85H415.8v39.9h-2.57V2.85H398.7V.57Z"/></g></g></svg>